<svg version="1.1" xmlns="http://www.w3.org/2000/svg" style="display: block;" viewBox="0 0 2048 2048" width="920" height="920" preserveAspectRatio="none">
<path transform="translate(0,0)" fill="rgb(0,0,0)" d="M 1934.27 1714.82 C 1931.37 1719.58 1925.82 1724.79 1921.88 1728.9 C 1877.23 1775.52 1815.14 1787.6 1753.15 1788.77 C 1714.47 1789.5 1675.65 1788.85 1636.95 1788.84 L 1426.24 1788.85 L 765.668 1788.86 L 439.112 1788.86 L 343.221 1788.88 C 314.1 1788.87 284.915 1789.38 255.965 1785.62 C 211.845 1779.9 170.215 1765 137.814 1733.49 C 111.401 1707.8 90.5757 1670.4 82.9236 1634.34 C 77.739 1609.91 80.082 1583.09 80.0891 1558.18 L 79.8812 1454.27 L 77.2992 1040.57 L 74.2483 647.787 L 73.4698 531.9 C 73.1221 487.912 71.2833 444.241 80.0898 400.847 C 86.8068 367.749 103.999 334.382 127.764 310.33 C 171.073 266.498 235.028 255.666 294.171 255.204 L 1320.11 254.025 L 1631.11 253.793 L 1716.59 253.557 C 1743.88 253.43 1771.39 252.853 1798.5 256.438 C 1841.98 262.186 1884.57 277.309 1916.17 308.745 C 1939.52 331.965 1960.78 368.321 1966.66 400.929 C 1968.41 410.63 1968.72 420.872 1969.52 430.703 C 1972.72 469.783 1971.85 508.6 1971.82 547.775 L 1971.82 750.602 L 1971.82 1553.74 C 1971.78 1584.06 1967.77 1613.99 1967.82 1644.07 C 1968.55 1667.28 1951.58 1696.5 1936.07 1713.06 C 1935.5 1713.68 1934.88 1714.24 1934.27 1714.82 z"/>
<path transform="translate(0,0)" class="mainColor" fill="rgb(48,45,88)" d="M 1966.79 1633.13 L 1967.82 1644.07 C 1968.55 1667.28 1951.58 1696.5 1936.07 1713.06 C 1935.5 1713.68 1934.88 1714.24 1934.27 1714.82 C 1937.78 1704.18 1945.93 1694.53 1950.46 1684.11 C 1957.55 1667.79 1960.88 1650.85 1966.45 1634.14 L 1966.79 1633.13 z"/>
<path transform="translate(0,0)" class="secondColor" fill="rgb(67,65,105)" d="M 457.338 270.097 L 1594.94 270.168 L 1594.93 1773.31 C 1540.63 1772.61 1486.26 1773.17 1431.95 1773.17 L 1128.81 1773.16 L 457.321 1773.33 L 457.338 270.097 z"/>
<path transform="translate(0,0)" class="border" fill="rgb(0,0,0)" d="M 874.784 734.235 C 876.598 733.895 877.444 733.952 879.181 734.581 L 880.306 737.652 C 881.567 736.238 881.207 736.822 882.031 735.258 C 882.214 734.911 882.382 734.557 882.558 734.206 C 893.65 734.426 905.967 739.982 915.791 744.773 C 938.221 755.712 959.951 769.115 981.719 781.368 L 1103.62 849.972 L 1225.08 918.273 C 1248.21 931.283 1286.89 949.602 1305.19 967.285 C 1310.36 972.283 1320.12 982.267 1319.68 989.748 C 1319.58 991.511 1317.6 992.151 1316.28 993.089 L 1316.42 994.053 L 1320.33 994.513 C 1321.99 996.815 1321.32 1000.29 1320.85 1003.08 C 1320.17 1007.18 1317.76 1008.17 1314.65 1010.49 C 1316.37 1012.24 1316.65 1011.87 1316.76 1014.49 C 1311.26 1022.61 1304.64 1029.28 1296.72 1035.04 C 1278.75 1048.14 1257.85 1058.09 1238.37 1068.79 L 1141.53 1121.8 C 1091.55 1150.3 1040.6 1177.33 990.133 1204.98 C 964.857 1218.83 921.898 1245.81 895.849 1253.47 C 890.131 1255.15 875.854 1258.79 870.53 1255.89 L 869.663 1252.17 L 868.616 1252.36 L 867.552 1255.22 L 865.956 1255.57 C 862.206 1254.07 857.53 1252.13 854.561 1249.34 C 851.922 1246.86 854.782 1246.98 854.437 1244.18 L 851.552 1245.74 C 849.291 1244.99 848.261 1243.6 846.987 1241.68 C 839.554 1230.46 837.149 1217.16 836.094 1204.03 C 834.072 1178.87 835.569 1153.05 835.705 1127.79 L 836.076 999.083 L 836.575 857.261 C 836.708 830.001 834.1 797.128 840.012 770.582 C 841.219 765.164 843.311 754.478 848.116 751.417 L 850.444 752.717 L 851.018 751.681 L 849.017 749.548 C 850.419 745.483 856.604 741.045 860.028 738.591 C 862.012 739.22 862.331 739.931 863.726 741.41 L 864.07 737.557 C 866.921 735.123 871.192 734.892 874.784 734.235 z"/>
<path transform="translate(0,0)" class="transBackground" fill="rgb(254,254,254)" d="M 878.482 747.258 C 886.999 747.458 896.04 750.572 903.761 754.003 C 929.357 765.378 954.053 781.204 978.469 794.953 L 1112.72 870.481 L 1223.6 932.845 C 1245.02 944.836 1268.45 955.997 1288.24 970.442 C 1297.85 977.462 1304.01 984.97 1308.29 996.17 C 1307.81 998.426 1307.33 1000.69 1306.69 1002.9 C 1304.46 1010.63 1298.49 1016.67 1292.37 1021.55 C 1275.28 1035.16 1253.84 1044.97 1234.69 1055.46 L 1142.54 1106.05 L 984.399 1192.78 C 959.113 1206.71 923.911 1228.81 898.224 1238.72 C 888.736 1242.38 880.264 1243.22 870.213 1243.09 L 868.578 1242.18 C 865.331 1240.41 862.369 1238.79 859.857 1236 C 853.494 1228.95 850.659 1218.26 849.731 1208.95 C 847.561 1187.17 848.909 1164.3 848.953 1142.38 L 849.298 1024.7 L 849.921 878.323 C 849.999 849.873 849.07 821.067 850.708 792.68 C 851.708 775.34 853.547 761.749 867.186 749.509 L 878.482 747.258 z"/>
<path transform="translate(0,0)" class="mainColor" fill="rgb(48,45,88)" d="M 272.162 269.402 C 292.756 268.235 313.738 268.868 334.368 268.857 L 443.935 268.839 L 443.906 1774.96 C 384.579 1775.21 321.126 1777.39 262.312 1772.81 C 223.363 1768.31 185.046 1756.37 154.786 1730.59 C 114.712 1696.46 99.0964 1643.96 95.4935 1593.06 C 93.3721 1563.09 94.2208 1532.65 94.0673 1502.6 L 92.9891 1364.9 L 89.8396 910.5 L 87.4963 604.489 L 86.827 509.134 C 86.6747 483.586 85.8679 457.905 88.771 432.468 C 93.1304 394.271 105.289 355.86 131.083 326.609 C 167.179 285.676 219.753 272.883 272.162 269.402 z"/>
<path transform="translate(0,0)" class="border" fill="rgb(0,0,0)" d="M 228.147 482.415 C 242.446 481.893 256.835 482.062 271.146 482.02 C 295.761 481.948 326.443 478.968 347.165 495.181 C 358.108 503.742 362.601 519.195 363.803 532.553 C 365.279 548.957 363.703 565.989 363.408 582.436 C 363.117 598.671 364.879 617.095 361.26 632.879 C 358.994 642.762 354.216 652.612 347.509 660.243 C 337.051 672.142 322.634 677.067 307.249 678.091 C 292.588 679.008 277.873 679.042 263.189 679.254 C 239.303 679.598 209.381 683.039 189.666 666.584 C 177.75 656.638 173.15 642.219 171.577 627.344 C 170.069 613.074 170.922 598.131 170.93 583.784 C 170.943 557.806 166.413 522.19 184.495 500.861 C 195.876 487.438 211.508 483.822 228.147 482.415 z"/>
<path transform="translate(0,0)" class="transBackground" fill="rgb(254,254,254)" d="M 222.61 496.286 C 236.399 494.39 251.574 495.769 265.525 495.763 C 280.91 495.757 297.175 494.557 312.445 496.214 C 318.86 496.91 325.227 498.288 331.055 501.151 C 339.971 505.529 345.599 512.939 348.375 522.382 C 352.442 536.219 350.819 611.268 348.263 626.615 C 347.186 633.08 345.445 639.341 342.107 645.042 C 335.629 656.105 325.813 660.7 313.961 663.859 C 298.679 666.475 234.527 667.481 219.697 665.168 C 212.905 664.109 206.147 661.948 200.493 657.95 C 191.871 651.854 187.578 642.465 185.762 632.309 C 182.915 616.387 182.99 545.616 185.658 530.294 C 186.834 523.535 189.152 516.896 193.237 511.326 C 200.469 501.466 211.08 498.096 222.61 496.286 z"/>
<path transform="translate(0,0)" class="border" fill="rgb(0,0,0)" d="M 226.354 1339.4 C 248.979 1338.46 299.878 1337 319.974 1341.3 C 328.607 1343.14 337.003 1346.5 343.873 1352.15 C 354.814 1361.15 359.967 1374.46 361.442 1388.21 C 363.25 1405.06 361.769 1477.06 358.143 1492.41 C 356.028 1501.16 351.953 1509.32 346.224 1516.26 C 336.24 1528.21 321.385 1533.63 306.249 1535.03 C 284.503 1536.72 230.273 1538.44 210.407 1534.35 C 202.657 1532.76 195.024 1529.72 188.74 1524.85 C 175.992 1514.98 170.992 1499.78 169.458 1484.35 C 168.077 1470.46 168.977 1456.01 168.97 1442.05 C 168.955 1415.67 164.069 1379 182.549 1357.44 C 193.816 1344.29 209.975 1340.82 226.354 1339.4 z"/>
<path transform="translate(0,0)" class="transBackground" fill="rgb(254,254,254)" d="M 220.677 1353.29 C 233.325 1351.5 299.845 1351.93 312.21 1353.49 C 318.329 1354.26 324.537 1355.85 329.986 1358.78 C 338.345 1363.28 343.521 1370.49 346.156 1379.52 C 350.456 1394.24 348.555 1467.39 346.038 1483.53 C 345.033 1489.97 343.231 1496.27 339.952 1501.94 C 333.535 1513.06 323.659 1517.73 311.809 1520.91 C 296.907 1523.42 233.162 1524.52 218.074 1522.29 C 211.24 1521.28 204.544 1519.24 198.776 1515.34 C 189.554 1509.1 185.143 1499.1 183.368 1488.42 C 180.82 1473.08 182.17 1456.66 182.108 1441.14 C 182.037 1423.79 180.436 1404.71 183.376 1387.59 C 184.559 1380.7 186.899 1373.87 191.121 1368.24 C 198.529 1358.36 209.012 1355.09 220.677 1353.29 z"/>
<path transform="translate(0,0)" class="border" fill="rgb(0,0,0)" d="M 218.551 1059.24 C 234.278 1058.5 250.04 1058.9 265.78 1058.82 C 281.784 1058.75 298.9 1057.5 314.704 1060.2 C 322.772 1061.58 330.735 1064.17 337.647 1068.64 C 348.45 1075.62 355.145 1086.39 357.803 1098.87 C 361.521 1116.32 359.877 1190.09 356.477 1207.54 C 354.802 1216.14 351.785 1224.6 346.901 1231.91 C 338.129 1245.05 324.818 1251.05 309.876 1254.04 C 290.862 1256.73 229.179 1257.49 210.868 1254.3 C 203.296 1252.99 195.818 1250.4 189.338 1246.23 C 177.846 1238.82 171.403 1227.13 168.685 1213.97 C 165.53 1198.7 165.4 1120.44 168.201 1104.15 C 169.587 1096.08 172.41 1088.19 177.044 1081.4 C 187.135 1066.63 201.923 1062.08 218.551 1059.24 z"/>
<path transform="translate(0,0)" class="transBackground" fill="rgb(254,254,254)" d="M 222.679 1072.38 C 236.067 1071.45 249.988 1072.1 263.441 1072.07 C 278.728 1072.03 294.908 1070.88 310.021 1073.01 C 317.072 1074 324.765 1076.09 330.755 1079.98 C 338.221 1084.83 343.15 1093.79 344.835 1102.36 C 348.124 1119.07 346.365 1187.19 343.267 1204.82 C 342.086 1211.54 339.988 1219.01 336.036 1224.61 C 328.912 1234.7 317.872 1238.69 306.249 1240.91 C 286.52 1242.69 231.895 1244.15 213.427 1241.13 C 207.217 1240.12 200.904 1238.2 195.748 1234.49 C 186.478 1227.82 182.588 1217.78 181.072 1206.85 C 178.717 1189.87 179.847 1171.83 179.857 1154.71 C 179.865 1140.46 178.891 1125.24 180.763 1111.13 C 181.791 1103.38 183.761 1093.78 188.685 1087.56 C 197.362 1076.6 209.546 1073.89 222.679 1072.38 z"/>
<path transform="translate(0,0)" class="border" fill="rgb(0,0,0)" d="M 217.501 772.289 C 230.764 770.504 245.399 771.63 258.769 771.665 C 284.658 771.732 318.831 767.076 340.956 783.392 C 351.475 791.149 356.553 803.275 358.525 815.841 C 361.204 832.919 359.621 905.63 356.049 922.35 C 354.182 931.086 350.852 939.567 345.455 946.746 C 336.818 958.235 325.642 962.845 311.911 964.967 C 289.849 964.956 267.788 965.134 245.729 965.501 C 232.954 965.69 218.862 967.028 206.218 965.251 C 199.965 964.373 194.849 962.571 189.514 959.136 C 177.995 951.72 171.364 939.603 168.627 926.446 C 165.522 911.518 165.578 833.041 168.279 817.259 C 169.731 808.77 172.562 800.57 177.502 793.444 C 187.293 779.322 201.517 774.973 217.501 772.289 z"/>
<path transform="translate(0,0)" class="transBackground" fill="rgb(254,254,254)" d="M 221.129 785.369 C 234.565 783.79 249.257 785.037 262.865 785.063 C 278.449 785.093 294.968 783.653 310.423 785.794 C 316.742 786.67 323.087 788.443 328.601 791.713 C 337.356 796.905 342.511 805.275 344.761 815.063 C 348.208 830.063 346.214 901.337 343.53 917.503 C 342.45 924.011 340.298 930.378 336.701 935.937 C 329.317 947.353 318.305 951.389 305.611 953.911 C 288.654 954.899 271.623 954.946 254.641 955.213 C 242.198 955.409 229.098 956.386 216.746 954.668 C 209.882 953.713 202.123 951.775 196.375 947.827 C 187.121 941.471 182.931 931.774 181.287 921.011 C 178.661 903.821 179.856 885.445 179.861 868.092 C 179.866 853.728 178.885 838.35 180.733 824.101 C 181.729 816.415 183.496 807.192 188.315 800.979 C 196.793 790.049 208.071 787.06 221.129 785.369 z"/>
<path transform="translate(0,0)" class="mainColor" fill="rgb(48,45,88)" d="M 1608.23 267.226 L 1708.75 267.077 C 1776.96 267.011 1850.63 265.438 1904 315.5 C 1944.2 353.206 1956.8 410.219 1958.18 463.369 C 1958.95 492.674 1958.31 522.168 1958.29 551.494 L 1958.24 713.552 L 1958.26 1215.74 L 1958.25 1469 L 1958.27 1542.81 C 1958.26 1568.36 1958.47 1593.58 1954.77 1618.94 C 1948.97 1658.75 1934.66 1694.46 1906.7 1723.79 C 1852.97 1776.49 1778.01 1775.07 1708.15 1775.03 L 1608.2 1775.05 L 1608.23 267.226 z"/>
<path transform="translate(0,0)" class="border" fill="rgb(0,0,0)" d="M 1746.82 473.449 C 1759.85 472.811 1773.07 473.181 1786.12 473.132 C 1810.93 473.04 1842.76 469.911 1863.52 486.536 C 1874.27 495.145 1878.64 510.78 1879.8 524.033 C 1881.21 540.144 1879.67 556.803 1879.38 572.952 C 1879.08 589.412 1880.92 608.332 1877.15 624.32 C 1874.86 634.021 1870.14 643.783 1863.52 651.254 C 1852.19 664.038 1837.3 668.259 1820.91 669.25 C 1806.72 670.133 1792.45 670.09 1778.24 670.287 C 1754.8 670.612 1725.37 673.761 1705.79 657.858 C 1693.02 647.479 1688.56 631.306 1687.31 615.587 C 1686.22 601.746 1686.98 587.578 1686.94 573.696 C 1686.85 547.499 1682.54 511.847 1701.44 490.846 C 1713.47 477.473 1729.82 474.428 1746.82 473.449 z"/>
<path transform="translate(0,0)" class="transBackground" fill="rgb(254,254,254)" d="M 1739.4 487.279 C 1752.94 485.495 1767.84 486.86 1781.52 486.853 C 1796.88 486.845 1813.25 485.599 1828.47 487.303 C 1835.4 488.079 1842.36 489.627 1848.52 493.017 C 1857.17 497.774 1862.35 505.598 1864.77 515.034 C 1868.33 528.857 1866.66 601.582 1864.24 617.554 C 1863.22 624.314 1861.2 631.062 1857.6 636.912 C 1850.68 648.177 1840.45 652.351 1828.21 655.328 C 1809.65 657.38 1754.27 658.863 1736.74 656.319 C 1729.74 655.303 1722.38 653.397 1716.55 649.265 C 1707.32 642.729 1703.57 633.877 1701.8 623.058 C 1698.91 605.482 1698.85 541.301 1701.49 523.573 C 1702.55 516.47 1704.48 508.177 1708.89 502.412 C 1716.58 492.382 1727.48 489.094 1739.4 487.279 z"/>
<path transform="translate(0,0)" class="border" fill="rgb(0,0,0)" d="M 1746.41 1330.44 C 1760.29 1330.21 1774.17 1330.12 1788.05 1330.16 C 1811.55 1330.11 1841.31 1327.31 1860.55 1343.78 C 1871.98 1353.57 1876.66 1368.12 1877.7 1382.68 C 1878.69 1396.41 1877.55 1410.29 1877.28 1424.04 C 1876.9 1442.94 1878.74 1465.18 1874.15 1483.53 C 1871.86 1492.69 1867.58 1501.38 1861.23 1508.41 C 1849.42 1521.52 1833.09 1525.39 1816.25 1526.56 C 1795.47 1527.63 1744.65 1529.28 1726.15 1525.42 C 1718.07 1523.74 1710.31 1520.46 1703.86 1515.24 C 1691.43 1505.18 1686.67 1489.85 1685.4 1474.5 C 1683.78 1454.92 1683.33 1389.17 1687.36 1371.63 C 1689.35 1362.98 1693.04 1354.7 1698.98 1348.03 C 1711.28 1334.23 1728.91 1331.16 1746.41 1330.44 z"/>
<path transform="translate(0,0)" class="transBackground" fill="rgb(254,254,254)" d="M 1737.52 1344.26 C 1750.95 1342.59 1765.69 1343.87 1779.31 1343.9 C 1795.37 1343.94 1812.26 1342.54 1828.2 1344.57 C 1834.86 1345.42 1841.57 1347.23 1847.37 1350.68 C 1855.58 1355.58 1860.32 1363.32 1862.62 1372.46 C 1866.35 1387.27 1864.53 1458.42 1861.91 1475.13 C 1860.86 1481.77 1858.85 1488.35 1855.28 1494.07 C 1848.33 1505.25 1838.22 1509.37 1826.02 1512.36 C 1807.81 1514.59 1752.47 1515.79 1734.95 1513.43 C 1727.89 1512.47 1720.24 1510.4 1714.3 1506.38 C 1706.09 1500.83 1701.5 1491.39 1699.78 1481.87 C 1696.67 1464.65 1696.64 1398.08 1699.25 1380.71 C 1700.3 1373.67 1702.21 1365.48 1706.47 1359.69 C 1714.1 1349.33 1725.45 1346.14 1737.52 1344.26 z"/>
<path transform="translate(0,0)" class="border" fill="rgb(0,0,0)" d="M 1735.6 1050.24 C 1750.94 1049.63 1766.35 1049.86 1781.69 1049.81 C 1805.43 1049.74 1834.1 1046.46 1854.73 1060.69 C 1866.25 1068.63 1872.33 1079.66 1874.5 1093.28 C 1877.19 1110.13 1875.73 1182.66 1872.29 1199.45 C 1870.4 1208.69 1866.94 1217.73 1861.22 1225.3 C 1851.82 1237.75 1837.52 1243.44 1822.55 1245.6 C 1803.17 1247.76 1743.71 1248.72 1725.66 1245.23 C 1717.7 1243.7 1709.96 1240.67 1703.37 1235.89 C 1692.32 1227.86 1686.28 1215.5 1684.1 1202.26 C 1681.55 1186.83 1681.4 1110.78 1684.23 1094.96 C 1685.77 1086.38 1688.83 1078.06 1694.05 1071.01 C 1704.38 1057.05 1719.33 1052.76 1735.6 1050.24 z"/>
<path transform="translate(0,0)" class="transBackground" fill="rgb(254,254,254)" d="M 1739.85 1063.39 C 1754.9 1062.81 1770.14 1063.19 1785.22 1063.14 C 1798.96 1063.1 1813.45 1062.13 1827.04 1064.2 C 1833.92 1065.25 1840.61 1067.14 1846.39 1071.14 C 1855.54 1077.45 1859.54 1085.6 1861.22 1096.31 C 1863.86 1113.13 1862.25 1178.71 1859.26 1195.7 C 1858 1202.82 1855.83 1210.74 1851.39 1216.53 C 1843.28 1227.14 1831.2 1230.79 1818.53 1232.41 C 1799.89 1233.86 1745.65 1235.16 1728.86 1232.17 C 1722.9 1231.11 1717.24 1229.35 1712.23 1225.86 C 1703.21 1219.56 1699.12 1210.69 1697.39 1200.09 C 1694.62 1183.13 1694.52 1118.1 1696.86 1101.23 C 1697.85 1094.11 1699.77 1085.01 1704.16 1079.27 C 1713.14 1067.52 1726.03 1064.82 1739.85 1063.39 z"/>
<path transform="translate(0,0)" fill="rgb(0,0,0)" d="M 1733.93 763.31 C 1747.94 761.7 1762.89 762.796 1777.01 762.802 C 1794.09 762.809 1812.49 761.263 1829.39 763.936 C 1838.24 765.337 1847.06 768.054 1854.65 772.914 C 1865.85 780.079 1871.6 791.743 1874.04 804.448 C 1877.12 820.476 1875.58 895.747 1872.24 912.463 C 1870.56 920.855 1867.51 929.099 1862.59 936.148 C 1853.12 949.711 1839.73 954.886 1824.24 957.786 C 1805.22 959.624 1785.84 959.017 1766.76 959.06 C 1753.21 959.091 1738.94 960.273 1725.57 957.876 C 1718.3 956.573 1711.1 953.971 1704.93 949.903 C 1693.4 942.308 1687.06 930.02 1684.51 916.745 C 1681.38 900.475 1681.34 824.644 1684.3 807.834 C 1685.78 799.506 1688.67 791.438 1693.55 784.474 C 1703.52 770.244 1717.77 766.056 1733.93 763.31 z"/>
<path transform="translate(0,0)" class="transBackground" fill="rgb(254,254,254)" d="M 1737.92 776.373 C 1751.78 775.373 1766.18 776.042 1780.1 776.009 C 1795.23 775.972 1811.36 774.803 1826.31 776.978 C 1833.28 777.992 1840.87 780.105 1846.79 783.96 C 1854.23 788.812 1859.15 797.805 1860.82 806.355 C 1864.15 823.425 1862.27 890.965 1859.24 908.713 C 1858.12 915.257 1856.19 922.444 1852.37 927.931 C 1844.89 938.688 1833.64 942.829 1821.25 944.972 C 1805.47 946.157 1789.5 945.988 1773.68 946.254 C 1760.15 946.48 1746.03 947.604 1732.6 945.768 C 1725.8 944.839 1718.36 942.869 1712.62 939.082 C 1703.85 933.297 1699.27 923.869 1697.51 913.782 C 1694.4 895.99 1695.82 876.572 1695.84 858.56 C 1695.85 844.517 1694.89 829.479 1696.67 815.561 C 1697.64 807.949 1699.52 798.208 1704.22 792.028 C 1712.68 780.881 1724.79 777.978 1737.92 776.373 z"/>
</svg>
