<svg version="1.1" xmlns="http://www.w3.org/2000/svg" style="display: block;" viewBox="0 0 3072 3072" width="3072" height="3072" preserveAspectRatio="none">
<path class="seed" transform="translate(0,0)" fill="rgb(255,255,255)" d="M 1468.83 935.786 C 1471.78 929.73 1471.33 894.756 1472.29 884.7 C 1478.15 823.269 1497.49 759.527 1531.47 707.704 C 1541.28 692.748 1591.52 632.157 1607.35 628.829 C 1607.26 630.747 1585.09 665.833 1582.02 671.168 C 1576.44 680.867 1569.56 690.624 1564.8 700.674 C 1546.79 738.736 1521.49 815.086 1519.98 857.188 C 1519.88 860.133 1519.76 862.102 1518.59 864.89 C 1515.06 912.831 1515.46 959.172 1518.6 1007.11 C 1520.07 1010.44 1528.19 1074.76 1530.54 1086.34 C 1541.37 1139.1 1555.65 1191.09 1573.29 1241.98 C 1604.73 1328.93 1641.52 1413.85 1683.47 1496.25 C 1688.7 1506.58 1694.97 1516.36 1700.34 1526.64 C 1737.41 1597.54 1776.01 1667.83 1808.93 1740.8 C 1826.16 1778.99 1842.75 1820.2 1854.02 1860.63 C 1856.48 1869.46 1862.16 1907.19 1864.83 1912.44 C 1862.83 1926.14 1863.48 2011.79 1866.17 2021.55 C 1866.4 2034.43 1862.85 2047.67 1859.3 2059.97 C 1843.56 2114.53 1811.86 2163.12 1772.9 2204.04 C 1744.75 2233.62 1709.73 2261.96 1674.03 2281.64 C 1590.36 2327.77 1493.65 2343.13 1400.62 2358.35 C 1288.96 2376.62 1170.92 2395.09 1070.55 2450.24 C 1062.34 2454.75 1032.18 2470.35 1028.55 2477.34 C 1020.11 2481.79 985.833 2506.77 982.685 2515.46 L 984.349 2516.06 L 986.364 2514.45 C 999.344 2504.18 1018.51 2500.21 1030.15 2489.1 C 1174.75 2419.37 1332.11 2414.78 1488.11 2393.62 C 1532.31 2387.62 1574.51 2380.72 1617.63 2368.97 C 1625.32 2366.88 1633.3 2365.93 1640.83 2363.3 C 1704.19 2341.15 1760.32 2303.28 1810.01 2258.79 C 1815.44 2253.94 1821.52 2249.93 1826.72 2244.83 C 1830.05 2249.57 1830.16 2257.65 1830.91 2263.41 C 1835.43 2298.28 1834.34 2331.93 1828.26 2366.68 C 1804.85 2500.68 1709.05 2617.88 1599.53 2694.03 C 1503.46 2761.23 1393.35 2805.66 1277.56 2823.96 C 1266.72 2825.69 1188.64 2832.97 1188.11 2833.2 C 1169.18 2835.38 1123.69 2833.9 1105.09 2831.04 C 1084.97 2825.97 1060.91 2825.34 1040.02 2821.43 C 971.107 2808.51 900.4 2780.78 844.051 2738.58 C 768.126 2681.73 722.43 2607.01 708.957 2512.9 C 706.485 2501.59 710.072 2489.79 705.952 2478.75 C 711.89 2365 751.707 2273.42 827.204 2188.73 C 944.862 2056.75 1137.05 1962.34 1314.01 1951.56 L 1318.01 1950.64 C 1334.22 1954.6 1421.63 1955.62 1436.2 1950.55 L 1438.74 1950.82 C 1459.51 1956.39 1483.29 1956.26 1504.63 1960.75 C 1600.04 1980.83 1674.39 2017.94 1745.31 2085.87 C 1768.97 2039.38 1786.94 1994.2 1786 1940.86 C 1783.25 1785.85 1676.09 1636.88 1613.77 1499.84 C 1562.89 1387.97 1519.15 1271.1 1493.03 1150.81 C 1485.03 1113.95 1470.48 1049.05 1472.35 1013.17 C 1477.45 1000.17 1474.76 981.676 1474.26 967.782 C 1471.43 978.311 1472.83 992.615 1473.19 1003.54 L 1471.45 1004.91 C 1466.85 992.991 1473.49 977.76 1468.81 966.029 C 1467.84 955.907 1468.1 945.906 1468.83 935.786 z"/>
<path class="seed" transform="translate(0,0)" fill="rgb(255,255,255)" d="M 2185.21 806.631 C 2234.88 801.439 2319.43 828.75 2364.47 848.664 C 2344.89 864.753 2311.77 909.552 2296.67 931.714 C 2205.3 1065.83 2145.97 1231.79 1981.79 1294.63 C 1889.23 1330.06 1791.18 1327.89 1694.62 1313.49 C 1675.19 1310.59 1651.46 1309.37 1633.58 1301.44 C 1635.57 1293.29 1647.18 1283.59 1652.95 1277.58 C 1722.38 1205.19 1808.58 1147.96 1891.51 1092.37 C 1903.8 1084.12 1962.33 1050.24 1967.22 1042.06 C 1962.34 1042.21 1958.26 1046.19 1953.71 1047.88 C 1949.01 1049.62 1944.21 1050.27 1939.44 1052.25 C 1926.89 1057.47 1914.99 1064.35 1902.67 1070.07 C 1813.55 1111.43 1726.03 1158.11 1654.48 1226.65 C 1640.61 1239.93 1629.59 1255.05 1616.39 1268.77 L 1615.29 1267.93 C 1614.36 1254.3 1617.48 1239.19 1619.55 1225.68 C 1628.85 1164.77 1645.82 1107.29 1675.93 1053.24 C 1734.08 948.813 1830.54 877.327 1942.57 839.062 C 1955.28 834.721 1967.84 829.774 1980.88 826.494 C 2004.35 820.591 2028.45 815.544 2052.39 812.058 C 2063.52 810.438 2082.04 810.593 2091.73 807.271 C 2092.32 807.069 2092.88 806.77 2093.45 806.519 C 2111.52 809.538 2168.65 812.379 2185.21 806.631 z"/>
<path class="seed" transform="translate(0,0)" fill="rgb(255,255,255)" d="M 839.525 788.388 C 874.443 769.208 937.22 750.768 977.57 752.115 C 992.996 758.708 1056.14 755.722 1074.55 752.534 C 1075.12 752.78 1075.68 753.073 1076.26 753.274 C 1082.74 755.485 1091.65 755.23 1098.68 756.445 C 1117.42 759.518 1136.01 763.479 1154.38 768.315 C 1254.13 794.925 1341.16 857.324 1391.5 948.128 C 1414.25 989.179 1427.72 1033.86 1434.8 1080.12 C 1436.21 1089.34 1438.51 1099.58 1437.73 1108.88 C 1431 1107.16 1420.97 1089.98 1415.21 1084.06 C 1404.35 1072.9 1391.48 1062.5 1379.24 1052.89 C 1320.88 1007.07 1253.38 975.285 1185.41 946.76 C 1177.36 943.383 1163.66 934.747 1155.37 934.069 L 1155.21 936.036 C 1158.45 938.324 1161.39 939.982 1164.98 941.673 C 1173.05 945.479 1180.33 951.801 1188.11 956.448 C 1238.71 986.711 1398.05 1089.05 1423.13 1133.12 C 1421.74 1136.22 1420.93 1136.24 1417.83 1137.37 C 1397.21 1144.88 1342.41 1151.14 1318.42 1152.96 C 1309.79 1153.61 1298.16 1152.16 1290.03 1154.13 C 1287.98 1154.62 1286.84 1155.33 1285.15 1156.38 C 1269.28 1153.68 1240.9 1153.7 1223.94 1153.24 C 1216.27 1148.76 1192.68 1148.42 1182.4 1145.77 C 1150.43 1137.53 1119.93 1124.39 1091.98 1106.83 C 975.317 1032.86 937.385 883.902 841.115 789.928 L 839.525 788.388 z"/>
<path class="seed" transform="translate(0,0)" fill="rgb(255,255,255)" d="M 1733.46 647.36 C 1730.27 646.016 1731.85 646.374 1728.36 646.147 C 1709.98 644.949 1667.98 640.686 1651.85 634.827 C 1648.58 633.64 1648.14 633.676 1646.69 630.401 C 1648.98 623.693 1660.27 614.923 1665.52 609.72 C 1721.13 554.635 1784.34 510.772 1849.51 467.803 C 1859.65 461.121 1904.75 434.194 1909.28 428.419 L 1907.53 427.841 C 1891.45 432.631 1875.4 441.4 1860.08 448.486 C 1789.21 481.272 1717.61 519.476 1661.63 574.757 C 1655.47 580.84 1648.78 586.535 1643.43 593.369 L 1633.06 606.466 L 1632 605.56 C 1631.89 603.832 1631.74 602.102 1631.75 600.37 C 1631.86 580.889 1636.74 560.776 1641 541.927 C 1642.61 534.796 1642.86 527.339 1644.59 520.224 C 1646.72 511.463 1650.82 502.621 1653.9 494.135 C 1672.58 442.669 1697.94 398.928 1736.98 360.023 C 1796.17 301.041 1873.34 265.058 1954.75 249.05 C 1970.81 245.893 1988.51 242.037 2004.86 242.096 C 2019.58 248.528 2097.4 245.925 2115.33 242.726 C 2115.74 242.955 2116.12 243.228 2116.54 243.414 C 2118.72 244.367 2120.16 244.304 2122.47 244.449 C 2144.72 245.852 2203.01 260.498 2221.04 272.996 L 2222.55 275.763 C 2197.33 304.558 2177.35 328.817 2156.57 361.062 C 2090.35 463.805 2042.96 581.145 1919.35 627.89 C 1896.76 636.433 1869.97 644.383 1845.77 646.165 C 1842.92 646.375 1840.71 646.357 1837.99 647.399 C 1819.67 642.179 1752.52 642.963 1733.46 647.36 z"/>
<path transform="translate(0,0)" fill="rgb(0,0,0)" fill-opacity="0.0313725" d="M 1518.59 864.89 C 1522.58 881.974 1523.5 991.889 1518.6 1007.11 C 1515.46 959.172 1515.06 912.831 1518.59 864.89 z"/>
<path class="seed" transform="translate(0,0)" fill="rgb(255,255,255)" fill-opacity="0.972549" d="M 1866.17 2021.55 C 1863.48 2011.79 1862.83 1926.14 1864.83 1912.44 C 1869.58 1944.18 1873.26 1979.88 1868.45 2011.84 C 1867.98 2014.95 1868.26 2019.17 1866.17 2021.55 z"/>
<path class="seed" transform="translate(0,0)" fill="rgb(255,255,255)" fill-opacity="0.964706" d="M 2004.86 242.096 C 2024.33 235.107 2091.4 241.11 2115.33 242.726 C 2097.4 245.925 2019.58 248.528 2004.86 242.096 z"/>
<path class="seed" transform="translate(0,0)" fill="rgb(255,255,255)" fill-opacity="0.968627" d="M 1349.24 1947.94 C 1367.74 1948.27 1386.25 1948.27 1404.76 1947.93 C 1414.37 1951.45 1426.02 1949.91 1436.2 1950.55 C 1421.63 1955.62 1334.22 1954.6 1318.01 1950.64 C 1328.43 1949.58 1339.24 1951.56 1349.24 1947.94 z"/>
<path transform="translate(0,0)" fill="rgb(0,0,0)" fill-opacity="0.0352941" d="M 1105.09 2831.04 C 1123.69 2833.9 1169.18 2835.38 1188.11 2833.2 C 1187.81 2834.46 1187.05 2835.72 1186.48 2836.89 C 1184.69 2837.78 1184.21 2838.13 1181.97 2838.59 C 1172.64 2840.48 1109.34 2838.6 1103.13 2833.68 L 1105.09 2831.04 z"/>
<path transform="translate(0,0)" fill="rgb(0,0,0)" fill-opacity="0.0156863" d="M 1028.55 2477.34 C 1027.52 2480.93 1025.92 2483.56 1027.31 2487.13 L 1030.15 2489.1 C 1018.51 2500.21 999.344 2504.18 986.364 2514.45 L 984.349 2516.06 L 982.685 2515.46 C 985.833 2506.77 1020.11 2481.79 1028.55 2477.34 z"/>
<path class="seed" transform="translate(0,0)" fill="rgb(255,255,255)" fill-opacity="0.968627" d="M 1733.46 647.36 C 1752.52 642.963 1819.67 642.179 1837.99 647.399 C 1802.13 649.397 1769.37 649.879 1733.46 647.36 z"/>
<path class="seed" transform="translate(0,0)" fill="rgb(255,255,255)" fill-opacity="0.964706" d="M 977.57 752.115 C 996.602 744.794 1052.28 751.699 1074.55 752.534 C 1056.14 755.722 992.996 758.708 977.57 752.115 z"/>
<path class="seed" transform="translate(0,0)" fill="rgb(255,255,255)" fill-opacity="0.964706" d="M 2093.45 806.519 C 2116.9 805.79 2165.19 798.347 2185.21 806.631 C 2168.65 812.379 2111.52 809.538 2093.45 806.519 z"/>
<path transform="translate(0,0)" fill="rgb(0,0,0)" fill-opacity="0.027451" d="M 1223.94 1153.24 C 1240.9 1153.7 1269.28 1153.68 1285.15 1156.38 L 1282.48 1158.48 C 1269.54 1158.92 1238.46 1162.54 1227.21 1157.8 C 1224.89 1156.82 1224.89 1155.37 1223.94 1153.24 z"/>
<path transform="translate(0,0)" fill="rgb(0,0,0)" fill-opacity="0.027451" d="M 1468.81 966.029 C 1467.11 965.361 1465.51 965.16 1464.44 963.546 C 1461.08 958.506 1461.21 946.179 1463.23 940.605 C 1464.47 937.174 1465.74 937.007 1468.83 935.786 C 1468.1 945.906 1467.84 955.907 1468.81 966.029 z"/>
<path transform="translate(0,0)" fill="rgb(0,0,0)" fill-opacity="0.0352941" d="M 708.957 2512.9 L 706.097 2514.97 C 705.024 2513.73 704.787 2513.62 704.095 2511.85 C 701.061 2504.06 703.024 2486.41 705.952 2478.75 C 710.072 2489.79 706.485 2501.59 708.957 2512.9 z"/>
<path transform="translate(0,0)" fill="rgb(0,0,0)" fill-opacity="0.0352941" d="M 1404.76 1947.93 C 1412.42 1945.02 1430.09 1943.12 1437.86 1946.12 C 1439.62 1946.81 1439.73 1947.05 1440.97 1948.11 L 1438.74 1950.82 L 1436.2 1950.55 C 1426.02 1949.91 1414.37 1951.45 1404.76 1947.93 z"/>
<path transform="translate(0,0)" fill="rgb(0,0,0)" fill-opacity="0.0352941" d="M 1314.01 1951.56 L 1314.38 1947.96 C 1315.69 1946.78 1315.78 1946.54 1317.68 1945.78 C 1325.28 1942.74 1341.78 1945.08 1349.24 1947.94 C 1339.24 1951.56 1328.43 1949.58 1318.01 1950.64 L 1314.01 1951.56 z"/>
<path transform="translate(0,0)" fill="rgb(0,0,0)" fill-opacity="0.0313725" d="M 1873.16 1946.22 L 1873.98 1946.55 C 1877.63 1956.06 1875.09 1992.34 1875.08 2004.72 L 1873.26 2003.27 C 1872.85 1984.25 1872.82 1965.24 1873.16 1946.22 z"/>
<path class="seed" transform="translate(0,0)" fill="rgb(255,255,255)" fill-opacity="0.964706" d="M 1471.45 1004.91 L 1473.19 1003.54 C 1472.83 992.615 1471.43 978.311 1474.26 967.782 C 1474.76 981.676 1477.45 1000.17 1472.35 1013.17 L 1471.45 1004.91 z"/>
<path transform="translate(0,0)" fill="rgb(0,0,0)" fill-opacity="0.0313725" d="M 1258.91 1160.26 C 1264.62 1157.55 1279.26 1158.28 1285.09 1160.26 C 1277.79 1162.29 1266.38 1161.53 1258.91 1160.26 z"/>
</svg>
