<svg version="1.1" xmlns="http://www.w3.org/2000/svg" style="display: block;" viewBox="0 0 1434 2048" width="808" height="1154" preserveAspectRatio="none">
<path class="border" transform="translate(0,0)" fill="rgb(0,0,0)" d="M 328.036 316.348 C 340.126 314.869 353.423 315.861 365.621 315.872 L 437.548 315.948 L 678.873 315.943 L 968.681 315.927 L 1055.14 315.884 C 1072.88 315.862 1091.19 314.932 1108.83 316.821 C 1129.79 319.199 1149.73 327.112 1166.62 339.748 C 1191.61 358.463 1208.11 386.367 1212.46 417.281 C 1215.28 437.202 1214.01 458.112 1214 478.215 L 1213.93 575.755 L 1213.94 918.046 L 1213.99 1397.42 L 1213.98 1548.54 C 1213.98 1574.57 1215.6 1601.8 1213.37 1627.67 C 1211.27 1650.21 1202.85 1671.69 1189.08 1689.66 C 1168.62 1716.4 1139.75 1731.09 1106.69 1735.35 C 1086.43 1736.29 1065.98 1735.78 1045.69 1735.77 L 943.403 1735.74 L 630.108 1735.75 L 427.96 1735.76 L 368.194 1735.8 C 353.298 1735.82 338.234 1736.33 323.405 1734.67 C 302.925 1732.17 283.478 1724.28 267.062 1711.78 C 241.843 1692.63 225.335 1664.19 221.22 1632.79 C 218.635 1612.96 220.002 1592.04 220.023 1572.02 L 220.099 1467.63 L 220.09 1114.69 L 220.063 645.992 L 220.063 499.169 C 220.068 474.27 218.343 447.884 220.609 423.141 C 222.91 400.421 231.56 378.808 245.57 360.775 C 266.552 334.096 294.811 320.419 328.036 316.348 z M 1103.25 1677.95 C 1121.84 1672.68 1137.81 1665.54 1147.64 1647.93 C 1152.9 1638.5 1156.44 1627.51 1156.87 1616.69 C 1158.08 1586.24 1156.91 1555.33 1156.88 1524.82 L 1156.86 1346.67 L 1156.86 796.95 L 1156.92 540.883 L 1156.95 475.65 C 1156.95 458.277 1159.28 437.165 1154.5 420.493 C 1149.79 404.016 1140.75 390.331 1125.58 381.916 C 1116.82 377.062 1107.26 373.942 1097.27 373.27 C 1084.15 372.388 1070.77 372.905 1057.63 372.937 L 990.599 373.071 L 773.935 373.077 L 483.967 373.058 C 433.653 373.049 382.807 371.393 332.557 373.294 C 314.769 377.378 298.25 384.492 288.131 400.462 C 282.413 409.486 277.578 421.729 277.131 432.506 C 275.8 464.556 276.951 497.139 276.95 529.242 L 276.949 716.695 L 276.984 1286.79 L 276.96 1525.01 L 276.92 1585.34 C 276.92 1598.89 275.36 1614.89 278.57 1628.06 C 282.365 1643.64 291.03 1659.27 305.073 1667.74 C 314.063 1673.16 323.813 1677.18 334.321 1677.94 C 347.497 1678.9 360.932 1678.38 374.138 1678.35 L 439.65 1678.23 L 650.861 1678.23 L 947.551 1678.24 C 999.308 1678.25 1051.55 1679.85 1103.25 1677.95 z"/>
<path class="center" transform="translate(0,0)" fill="rgb(255,255,255)" d="M 332.557 373.294 C 382.807 371.393 433.653 373.049 483.967 373.058 L 773.935 373.077 L 990.599 373.071 L 1057.63 372.937 C 1070.77 372.905 1084.15 372.388 1097.27 373.27 C 1107.26 373.942 1116.82 377.062 1125.58 381.916 C 1140.75 390.331 1149.79 404.016 1154.5 420.493 C 1159.28 437.165 1156.95 458.277 1156.95 475.65 L 1156.92 540.883 L 1156.86 796.95 L 1156.86 1346.67 L 1156.88 1524.82 C 1156.91 1555.33 1158.08 1586.24 1156.87 1616.69 C 1156.44 1627.51 1152.9 1638.5 1147.64 1647.93 C 1137.81 1665.54 1121.84 1672.68 1103.25 1677.95 C 1051.55 1679.85 999.308 1678.25 947.551 1678.24 L 650.861 1678.23 L 439.65 1678.23 L 374.138 1678.35 C 360.932 1678.38 347.497 1678.9 334.321 1677.94 C 323.813 1677.18 314.063 1673.16 305.073 1667.74 C 291.03 1659.27 282.365 1643.64 278.57 1628.06 C 275.36 1614.89 276.92 1598.89 276.92 1585.34 L 276.96 1525.01 L 276.984 1286.79 L 276.949 716.695 L 276.95 529.242 C 276.951 497.139 275.8 464.556 277.131 432.506 C 277.578 421.729 282.413 409.486 288.131 400.462 C 298.25 384.492 314.769 377.378 332.557 373.294 z M 794.905 1042.22 C 812.123 1026.59 833.022 1010.65 857.466 1011.92 C 873.058 1012.73 887.522 1019.38 897.963 1031.01 C 910.56 1045.05 913.695 1060.64 912.437 1079.05 C 912.022 1085.12 910.603 1091.58 908.046 1097.13 C 902.846 1108.43 874.096 1137.93 873.591 1146.46 C 877.827 1147.73 886.138 1142.61 889.848 1140.62 C 975.348 1094.27 1039.3 1016.29 1068.01 923.371 C 1097.99 823.094 1084.76 726.83 1035.22 635.37 C 991.868 555.35 907.917 491.217 821.231 465.626 C 783.04 454.352 746.704 450.501 707.078 450.554 C 699.787 450.564 690.556 449.661 683.522 451.318 C 683.354 451.453 683.193 451.597 683.018 451.723 C 679.388 454.343 653.517 455.736 646.524 457.025 C 635.098 459.223 623.81 462.09 612.72 465.611 C 584.995 474.59 558.468 485.297 533.128 499.856 C 440.833 554.07 376.395 645.448 356.317 750.588 C 352.473 769.898 351.281 788.911 350.802 808.531 C 348.858 888.155 370.843 959.707 415.579 1025.4 C 457.601 1087.12 520.886 1136.9 591.521 1161.44 C 600.056 1164.4 609.315 1168.62 618.185 1170.25 C 623.216 1171.17 625.989 1168.85 629.925 1166.09 C 673.422 1135.58 714.803 1101.54 757.326 1069.66 C 766.715 1062.63 785.057 1046.66 794.905 1042.22 z M 489.446 1470.87 C 507.974 1482.37 529.992 1485.29 551.008 1480.41 C 566.283 1476.87 578.416 1471.72 589.825 1460.75 C 609.986 1441.36 626.261 1418.07 643.078 1395.79 L 713.811 1301.74 C 744.439 1261.69 774.327 1220.99 805.228 1181.17 C 821.121 1160.76 836.806 1140.18 852.278 1119.45 C 860.935 1107.94 870.453 1096.48 877.989 1084.21 C 881.885 1077.87 882.521 1070.72 880.677 1063.49 C 878.945 1056.71 874.352 1051.02 868.331 1047.51 C 862.445 1044.08 856.884 1043.03 850.149 1043.43 C 846.211 1043.94 843.007 1045.25 839.775 1047.5 C 803.558 1072.75 768.864 1101.12 733.919 1128.13 C 691.14 1161.19 647.433 1193.3 604.368 1226.03 C 566.654 1254.68 528.095 1282.21 491.285 1312.03 C 479.123 1321.88 471.96 1324.52 461.795 1337.74 C 446.625 1357.46 440.689 1382.9 444.134 1407.5 C 447.187 1429.3 461.714 1450.94 479.223 1463.97 C 482.526 1466.43 486.301 1468.23 489.446 1470.87 z M 1071.92 1627.35 C 1077.82 1634.25 1084.46 1641.5 1094.13 1642.32 C 1096.47 1642.52 1097.99 1641.65 1099.9 1640.48 L 1103.81 1641.25 C 1107.17 1639.15 1110.52 1636.88 1114.03 1635.03 C 1118.22 1627.25 1121.64 1618.77 1118.82 1609.86 C 1116.6 1602.83 1111.12 1597.99 1105.38 1593.72 C 1099.56 1593.69 1093.39 1593.25 1087.65 1594.28 C 1081.32 1597.2 1075.87 1600.59 1073.42 1607.54 C 1071.26 1613.66 1071.86 1620.94 1071.92 1627.35 z M 339.06 408.221 C 334.132 412.212 326.881 412.323 320.241 416.509 C 316.887 422.558 314.237 428.717 312.555 435.446 L 313.361 436.427 C 319.173 443.63 318.475 455.45 329.994 457.785 C 331.582 458.106 333.33 458.014 334.943 457.95 C 342.901 458.088 349.156 457.804 355.322 452.012 C 358.176 449.333 360.134 445.443 362.071 442.079 L 361.983 424.278 C 357.62 418.947 353.608 414.098 346.876 411.752 C 343.764 410.667 341.673 410.42 339.06 408.221 z M 344.491 1640.34 C 351.361 1639.76 355.766 1634.82 359.926 1629.8 C 360.646 1628.94 361.345 1628.07 362.024 1627.17 C 362.249 1618.02 363.098 1607.36 356.222 1600.14 C 351.451 1595.14 343.953 1593.54 337.284 1593.61 C 334.241 1593.66 331.198 1593.76 328.159 1593.92 C 320.955 1599.85 315.295 1605.73 314.34 1615.51 C 313.707 1622 315.81 1629.03 319.994 1634.03 C 325.652 1640.79 332.155 1641.33 340.32 1642.28 L 344.491 1640.34 z M 1102.25 457.858 C 1106.84 457.352 1110.54 454.398 1113.43 450.792 C 1116.14 447.414 1120.96 439.539 1121.03 435.204 C 1121.09 431.512 1115.02 416.963 1112.15 414.977 C 1107.1 411.482 1098.71 412.191 1094.8 408.073 C 1092.88 409.924 1091.59 410.86 1088.96 411.479 C 1081.21 413.306 1076.6 418.028 1072.22 424.318 C 1071.82 433.873 1070.59 443.151 1077.57 450.906 C 1080.4 454.041 1084.11 455.976 1087.77 457.944 L 1102.25 457.858 z"/>
<path class="center" transform="translate(0,0)" fill="rgb(255,255,255)" d="M 701.789 692.312 C 770.98 683.867 833.849 733.288 841.981 802.516 C 850.113 871.744 800.409 934.389 731.144 942.208 C 662.321 949.977 600.163 900.658 592.083 831.872 C 584.002 763.085 633.039 700.704 701.789 692.312 z"/>
<path class="center" transform="translate(0,0)" fill="rgb(255,255,255)" d="M 523.508 1347.07 C 548.227 1341.91 572.502 1357.58 577.978 1382.23 C 583.454 1406.88 568.097 1431.35 543.518 1437.14 C 525.946 1441.28 507.573 1434.8 496.499 1420.54 C 485.425 1406.28 483.685 1386.87 492.045 1370.87 C 494.242 1366.67 497.076 1362.82 500.444 1359.48 C 506.772 1353.2 514.783 1348.89 523.508 1347.07 z"/>
</svg>
